<svg xmlns="http://www.w3.org/2000/svg" viewBox="0 0 100 100" width="100%" height="100%">
  <path d="M50 5 C50 5 42 16 42 22 C42 26.4 45.6 30 50 30 C54.4 30 58 26.4 58 22 C58 16 50 5 50 5 Z" fill="#E07A5F"/>
  <path d="M48 60 C25 60 15 40 15 30 C30 30 48 45 48 60 Z" fill="#2F5233"/>
  <path d="M52 50 C75 50 85 30 85 20 C70 20 52 35 52 50 Z" fill="#2F5233"/>
  <path d="M50 35 V70" stroke="#2F5233" stroke-width="4" stroke-linecap="round"/>
  <path d="M 25 70 H 75 C 75 90 65 95 50 95 C 35 95 25 90 25 70 Z" fill="#4A7055"/>
  <path d="M 68 76 C 66 85 58 89 50 90" stroke="#F9FAF6" stroke-width="2" stroke-linecap="round" fill="none"/>
</svg>
